<mxfile host="65bd71144e" modified="2021-01-18T07:11:26.680Z" agent="5.0 (Windows NT 10.0; Win64; x64) AppleWebKit/537.36 (KHTML, like Gecko) Code/1.52.1 Chrome/83.0.4103.122 Electron/9.3.5 Safari/537.36" version="13.10.0" etag="0zVMT1mq6J6VETDXoFRQ" type="embed">
    <diagram id="wlumiGv5TYknCUr09sGl" name="第 1 页">
        <mxGraphModel dx="1374" dy="790" grid="1" gridSize="10" guides="1" tooltips="1" connect="1" arrows="1" fold="1" page="1" pageScale="1" pageWidth="827" pageHeight="1169" math="0" shadow="0">
            <root>
                <mxCell id="0"/>
                <mxCell id="1" parent="0"/>
                <mxCell id="2" value="Pool Struct" style="swimlane;" vertex="1" parent="1">
                    <mxGeometry x="10" y="290" width="150" height="170" as="geometry"/>
                </mxCell>
                <mxCell id="3" value="chan Worker" style="whiteSpace=wrap;html=1;" vertex="1" parent="2">
                    <mxGeometry x="26" y="50" width="90" height="40" as="geometry"/>
                </mxCell>
                <mxCell id="6" value="waitgroup" style="whiteSpace=wrap;html=1;" vertex="1" parent="2">
                    <mxGeometry x="27" y="110" width="90" height="40" as="geometry"/>
                </mxCell>
                <mxCell id="23" value="" style="edgeStyle=orthogonalEdgeStyle;rounded=0;orthogonalLoop=1;jettySize=auto;html=1;" edge="1" parent="1" source="8" target="19">
                    <mxGeometry relative="1" as="geometry"/>
                </mxCell>
                <mxCell id="8" value="New a Pool Pointer" style="swimlane;" vertex="1" parent="1">
                    <mxGeometry x="250" y="290" width="210" height="170" as="geometry"/>
                </mxCell>
                <mxCell id="9" value="unbuffered worker chan" style="whiteSpace=wrap;html=1;" vertex="1" parent="8">
                    <mxGeometry x="26" y="40" width="144" height="40" as="geometry"/>
                </mxCell>
                <mxCell id="10" value="add maxgrs to waitgroup" style="whiteSpace=wrap;html=1;" vertex="1" parent="8">
                    <mxGeometry x="27" y="92" width="143" height="40" as="geometry"/>
                </mxCell>
                <mxCell id="15" value="pool pointer" style="text;html=1;strokeColor=none;fillColor=none;align=center;verticalAlign=middle;whiteSpace=wrap;rounded=0;" vertex="1" parent="8">
                    <mxGeometry y="150" width="80" height="20" as="geometry"/>
                </mxCell>
                <mxCell id="11" value="New" style="text;html=1;align=center;verticalAlign=middle;resizable=0;points=[];autosize=1;" vertex="1" parent="1">
                    <mxGeometry x="180" y="340" width="40" height="20" as="geometry"/>
                </mxCell>
                <mxCell id="14" value="" style="endArrow=classic;html=1;" edge="1" parent="1">
                    <mxGeometry width="50" height="50" relative="1" as="geometry">
                        <mxPoint x="162" y="360" as="sourcePoint"/>
                        <mxPoint x="250" y="360" as="targetPoint"/>
                    </mxGeometry>
                </mxCell>
                <mxCell id="16" value="wait for Worker chan to run worker inferface&amp;nbsp;&amp;nbsp;" style="whiteSpace=wrap;html=1;" vertex="1" parent="1">
                    <mxGeometry x="511.5" y="363" width="198.5" height="78" as="geometry"/>
                </mxCell>
                <mxCell id="17" value="" style="edgeStyle=orthogonalEdgeStyle;rounded=0;orthogonalLoop=1;jettySize=auto;html=1;" edge="1" parent="1" source="10" target="16">
                    <mxGeometry relative="1" as="geometry"/>
                </mxCell>
                <mxCell id="18" value="grs" style="text;html=1;strokeColor=none;fillColor=none;align=center;verticalAlign=middle;whiteSpace=wrap;rounded=0;" vertex="1" parent="1">
                    <mxGeometry x="511.5" y="421" width="38.5" height="20" as="geometry"/>
                </mxCell>
                <mxCell id="26" value="" style="edgeStyle=orthogonalEdgeStyle;rounded=0;orthogonalLoop=1;jettySize=auto;html=1;" edge="1" parent="1">
                    <mxGeometry relative="1" as="geometry">
                        <mxPoint x="460" y="634" as="sourcePoint"/>
                        <mxPoint x="590" y="440" as="targetPoint"/>
                    </mxGeometry>
                </mxCell>
                <mxCell id="19" value="Run method" style="swimlane;" vertex="1" parent="1">
                    <mxGeometry x="250" y="585" width="210" height="145" as="geometry"/>
                </mxCell>
                <mxCell id="20" value="send a function to worker chan" style="whiteSpace=wrap;html=1;" vertex="1" parent="19">
                    <mxGeometry x="38" y="34" width="134" height="36" as="geometry"/>
                </mxCell>
                <mxCell id="22" value="in a gr" style="text;html=1;strokeColor=none;fillColor=none;align=center;verticalAlign=middle;whiteSpace=wrap;rounded=0;" vertex="1" parent="19">
                    <mxGeometry x="-10" y="115" width="80" height="20" as="geometry"/>
                </mxCell>
                <mxCell id="32" value="wg done" style="whiteSpace=wrap;html=1;" vertex="1" parent="19">
                    <mxGeometry x="45" y="85" width="127" height="25" as="geometry"/>
                </mxCell>
                <mxCell id="24" value="new a newly wg to submit tasks" style="text;html=1;strokeColor=none;fillColor=none;align=center;verticalAlign=middle;whiteSpace=wrap;rounded=0;rotation=0;" vertex="1" parent="1">
                    <mxGeometry x="275" y="490" width="160" height="80" as="geometry"/>
                </mxCell>
                <mxCell id="27" value="activate" style="text;html=1;strokeColor=none;fillColor=none;align=center;verticalAlign=middle;whiteSpace=wrap;rounded=0;" vertex="1" parent="1">
                    <mxGeometry x="540" y="520" width="40" height="20" as="geometry"/>
                </mxCell>
                <mxCell id="28" value="" style="endArrow=classic;html=1;entryX=1;entryY=0.5;entryDx=0;entryDy=0;" edge="1" parent="1" target="32">
                    <mxGeometry width="50" height="50" relative="1" as="geometry">
                        <mxPoint x="640" y="441" as="sourcePoint"/>
                        <mxPoint x="460" y="669" as="targetPoint"/>
                        <Array as="points">
                            <mxPoint x="640" y="683"/>
                        </Array>
                    </mxGeometry>
                </mxCell>
                <mxCell id="33" value="" style="endArrow=classic;html=1;" edge="1" parent="1">
                    <mxGeometry width="50" height="50" relative="1" as="geometry">
                        <mxPoint x="640" y="574" as="sourcePoint"/>
                        <mxPoint x="460" y="334" as="targetPoint"/>
                        <Array as="points">
                            <mxPoint x="800" y="574"/>
                            <mxPoint x="800" y="334"/>
                        </Array>
                    </mxGeometry>
                </mxCell>
                <mxCell id="34" value="an old wg Done" style="text;html=1;strokeColor=none;fillColor=none;align=center;verticalAlign=middle;whiteSpace=wrap;rounded=0;" vertex="1" parent="1">
                    <mxGeometry x="620" y="310" width="110" height="20" as="geometry"/>
                </mxCell>
                <mxCell id="35" value="grs in pool run done" style="text;html=1;strokeColor=none;fillColor=none;align=center;verticalAlign=middle;whiteSpace=wrap;rounded=0;" vertex="1" parent="1">
                    <mxGeometry x="650" y="490" width="110" height="20" as="geometry"/>
                </mxCell>
            </root>
        </mxGraphModel>
    </diagram>
</mxfile>